<svg width="32" height="32" xmlns="http://www.w3.org/2000/svg"><path d="M28 10H4V8a1 1 0 011-1h22a1 1 0 011 1v2z" fill="#F9ED69"/><path d="M8 7H5a1 1 0 00-1 1v2h3V8a1 1 0 011-1z" fill="#BBB24F"/><path d="M27 7h-3a1 1 0 011 1v2h3V8a1 1 0 00-1-1z" fill="#FBF4A5"/><path d="M25 10H7v17a2 2 0 002 2h14a2 2 0 002-2V10z" fill="#F08A5D"/><path d="M23 10v17a2 2 0 01-2 2h2a2 2 0 002-2V10h-2z" fill="#F3A17D"/><path d="M25 12v-2H7v17a2 2 0 002 2V12h16z" fill="#B46846"/><path d="M25 10H7v17a2 2 0 002 2h14a2 2 0 002-2V10zm-5-3h-8V5a2 2 0 012-2h4a2 2 0 012 2v2zm8 3H4V8a1 1 0 011-1h22a1 1 0 011 1v2z" fill="none" stroke="#200F60" stroke-linecap="round" stroke-linejoin="round" stroke-miterlimit="10" stroke-width="2"/><path d="M16 25a1 1 0 01-1-1v-9a1 1 0 012 0v9a1 1 0 01-1 1zm-4 0a1 1 0 01-1-1v-9a1 1 0 012 0v9a1 1 0 01-1 1zm8 0a1 1 0 01-1-1v-9a1 1 0 012 0v9a1 1 0 01-1 1z" fill="#4D3F80"/><path d="M16 14a.985.985 0 00-.843.494 1 1 0 011.385.922v9a.971.971 0 01-.157.506A.998.998 0 0017 24v-9a1 1 0 00-1-1zm-4 0a.985.985 0 00-.843.494 1 1 0 011.385.922v9a.971.971 0 01-.157.506A.998.998 0 0013 24v-9a1 1 0 00-1-1zm8 0a.985.985 0 00-.843.494 1 1 0 011.385.922v9a.971.971 0 01-.157.506A.998.998 0 0021 24v-9a1 1 0 00-1-1z" fill="#200F60"/></svg>