<svg xmlns="http://www.w3.org/2000/svg" viewBox="0 0 496 496"><g fill="#fff"><path d="M467.152 248a28.571 28.571 0 00-23.96 12.936l-45.832 69.872-13.84-16.912C368.352 295.352 360 271.944 360 248c0-23.944 8.352-47.352 23.512-65.888l5.872-7.176 52.824 47.432A37.567 37.567 0 00467.344 232C483.152 232 496 219.152 496 203.344c0-9.864-4.96-18.896-13.272-24.176l-63.648-40.504 3.128-3.824A43.567 43.567 0 00432 107.376C432 83.464 412.536 64 388.624 64c-7.544 0-14.952 2-21.464 5.704L301.864 9.848A37.466 37.466 0 00276.528 0C260.8 0 248 12.8 248 28.528c0 9.976 5.08 19.064 13.576 24.296L333.048 96.8l-19.152 15.672C295.352 127.648 271.944 136 248 136c-23.944 0-47.352-8.352-65.888-23.512l-7.176-5.872 47.432-52.824A37.567 37.567 0 00232 28.656C232 12.848 219.152 0 203.344 0c-9.864 0-18.896 4.96-24.184 13.272L138.656 76.92l-3.824-3.128A43.528 43.528 0 00107.376 64C83.464 64 64 83.464 64 107.376c0 7.544 2 14.952 5.704 21.464L9.848 194.136A37.428 37.428 0 000 219.472C0 235.2 12.8 248 28.528 248c9.976 0 19.064-5.08 24.296-13.576l43.984-71.472 15.664 19.152C127.648 200.648 136 224.056 136 248c0 23.944-8.352 47.352-23.52 65.888l-6.408 7.824L53.76 273.76A37.073 37.073 0 0028.656 264C12.848 264 0 276.848 0 292.656c0 9.856 4.96 18.896 13.272 24.176l63.648 40.504-3.128 3.824A43.567 43.567 0 0064 388.624C64 412.536 83.464 432 107.376 432c7.408 0 14.688-1.936 21.112-5.512l65.744 59.792a37.25 37.25 0 0025.12 9.72c15.8 0 28.648-12.848 28.648-28.84 0-9.688-4.84-18.64-12.936-23.96l-69.872-45.832 16.912-13.84C200.648 368.352 224.056 360 248 360c23.944 0 47.352 8.352 65.896 23.52l7.824 6.4-47.952 52.312A37.077 37.077 0 00264 467.344C264 483.152 276.848 496 292.656 496c9.856 0 18.896-4.96 24.176-13.272l40.512-63.648 3.816 3.128A43.567 43.567 0 00388.624 432C412.536 432 432 412.536 432 388.624c0-7.408-1.936-14.68-5.512-21.112l59.792-65.744a37.25 37.25 0 009.72-25.12c0-15.8-12.848-28.648-28.848-28.648zm6.984-55.336a12.58 12.58 0 015.864 10.68c0 6.976-5.68 12.656-12.656 12.656a21.556 21.556 0 01-14.44-5.528l-67.032-60.192a31.916 31.916 0 0011.384-6.536l76.88 48.92zM388.624 80C403.72 80 416 92.28 416 107.376a27.417 27.417 0 01-6.184 17.328l-3.112 3.808c.76-2.728 1.296-5.544 1.296-8.512 0-11.824-6.52-22.056-16.08-27.592l-11.952-10.952c2.784-.928 5.696-1.456 8.656-1.456zM376 104c8.816 0 16 7.184 16 16s-7.184 16-16 16c-8.824 0-16-7.176-16-16s7.176-16 16-16zM269.968 39.2A12.447 12.447 0 01264 28.528C264 21.624 269.624 16 276.528 16a21.413 21.413 0 0114.512 5.648l74.464 68.256c-2.608.912-5.12 2.032-7.376 3.552L269.968 39.2zm-77.304-17.344A12.59 12.59 0 01203.344 16C210.32 16 216 21.68 216 28.656c0 5.344-1.96 10.472-5.528 14.44l-60.192 67.032a31.816 31.816 0 00-6.544-11.384l48.928-76.888zM39.2 226.032A12.447 12.447 0 0128.528 232C21.624 232 16 226.376 16 219.472a21.413 21.413 0 015.648-14.512l68.256-74.464c.912 2.608 2.032 5.12 3.552 7.376L39.2 226.032zM92.408 104.08l-10.952 11.952c-.928-2.784-1.456-5.696-1.456-8.656C80 92.28 92.28 80 107.376 80a27.417 27.417 0 0117.328 6.184l3.808 3.112C125.776 88.536 122.968 88 120 88c-11.824 0-22.056 6.52-27.592 16.08zM120 104c8.816 0 16 7.184 16 16s-7.184 16-16 16c-8.824 0-16-7.176-16-16 0-8.816 7.176-16 16-16zM21.856 303.328C18.184 301 16 297.008 16 292.656 16 285.68 21.68 280 28.656 280a21.105 21.105 0 0114.296 5.56l66.016 60.512a31.848 31.848 0 00-10.232 6.184l-76.88-48.928zM107.376 416C92.28 416 80 403.72 80 388.624a27.455 27.455 0 016.176-17.328l3.112-3.808C88.536 370.216 88 373.032 88 376c0 11.048 5.624 20.8 14.16 26.552l13.344 12.136c-2.624.816-5.352 1.312-8.128 1.312zM120 392c-8.824 0-16-7.176-16-16s7.176-16 16-16c8.816 0 16 7.176 16 16s-7.184 16-16 16zm106.28 64.568c3.576 2.352 5.72 6.304 5.72 10.776 0 6.976-5.68 12.656-12.656 12.656a21.251 21.251 0 01-14.352-5.552l-74.984-68.208a31.652 31.652 0 0010.536-5.912l85.736 56.24zm77.056 17.576a12.59 12.59 0 01-10.68 5.856C285.68 480 280 474.32 280 467.344a21.105 21.105 0 015.56-14.296l60.512-66.016a31.848 31.848 0 006.184 10.232l-48.92 76.88zm44.104-112.288l-14.888 16.248-8.528-6.968C302.624 353.64 275.624 344 248 344c-27.624 0-54.624 9.64-76.032 27.144l-20.8 17.024-1.328-.872c1.336-3.528 2.16-7.304 2.16-11.296 0-12.552-7.32-23.32-17.864-28.56l-16.248-14.896 6.976-8.52C142.36 302.624 152 275.624 152 248c0-27.624-9.64-54.624-27.136-76.024l-19.184-23.448.032-.048c4.32 2.176 9.128 3.52 14.288 3.52 9.984 0 18.8-4.688 24.672-11.872l.088.08 19.472-21.68 7.744 6.336C193.376 142.36 220.376 152 248 152c27.624 0 54.624-9.64 76.024-27.144l23.448-19.176.048.032c-2.176 4.32-3.52 9.128-3.52 14.288 0 9.984 4.688 18.8 11.872 24.672l-.08.088 21.68 19.472-6.336 7.744C353.64 193.376 344 220.376 344 248c0 27.624 9.64 54.624 27.144 76.032l17.024 20.8-.872 1.328c-3.528-1.336-7.304-2.16-11.296-2.16-12.552 0-23.32 7.32-28.56 17.856zM360 376c0-8.824 7.176-16 16-16 8.816 0 16 7.176 16 16s-7.184 16-16 16c-8.824 0-16-7.176-16-16zm28.624 40a27.455 27.455 0 01-17.336-6.184l-3.8-3.104c2.728.752 5.544 1.288 8.512 1.288 11.048 0 20.8-5.624 26.552-14.168l12.136-13.336c.816 2.624 1.312 5.352 1.312 8.128C416 403.72 403.72 416 388.624 416zm85.824-124.992l-68.208 74.984a31.652 31.652 0 00-5.912-10.536l56.24-85.736c2.352-3.576 6.304-5.72 10.776-5.72 6.976 0 12.656 5.68 12.656 12.656 0 5.32-1.968 10.424-5.552 14.352z"/><path d="M248 176c-39.704 0-72 32.296-72 72s32.296 72 72 72 72-32.296 72-72-32.296-72-72-72zm0 128c-30.872 0-56-25.128-56-56s25.128-56 56-56 56 25.128 56 56-25.128 56-56 56z"/></g></svg>