<svg xmlns="http://www.w3.org/2000/svg" viewBox="0 0 482.8 482.8"><path d="M108.2.1H33C14.8.1 0 14.9 0 33.1v75.1c0 18.2 14.8 33 33 33h75.1c18.2 0 33-14.8 33-33V33C141.2 14.9 126.4.1 108.2.1zm6 108.1c0 3.3-2.7 6-6 6H33c-3.3 0-6-2.7-6-6V33c0-3.3 2.7-6 6-6h75.1c3.3 0 6 2.7 6 6v75.2h.1zm-6 62.7H33c-18.2 0-33 14.8-33 33V279c0 18.2 14.8 33 33 33h75.1c18.2 0 33-14.8 33-33v-75.1c.1-18.2-14.7-33-32.9-33zm6 108.1c0 3.3-2.7 6-6 6H33c-3.3 0-6-2.7-6-6v-75.1c0-3.3 2.7-6 6-6h75.1c3.3 0 6 2.7 6 6V279h.1zm-6 62.6H33c-18.2 0-33 14.8-33 33v75.1c0 18.2 14.8 33 33 33h75.1c18.2 0 33-14.8 33-33v-75.1c.1-18.2-14.7-33-32.9-33zm6 108.2c0 3.3-2.7 6-6 6H33c-3.3 0-6-2.7-6-6v-75.1c0-3.3 2.7-6 6-6h75.1c3.3 0 6 2.7 6 6v75.1h.1zM279 170.9h-75.1c-18.2 0-33 14.8-33 33V279c0 18.2 14.8 33 33 33H279c18.2 0 33-14.8 33-33v-75.1c-.1-18.2-14.8-33-33-33zm5.9 108.1c0 3.3-2.7 6-6 6h-75.1c-3.3 0-6-2.7-6-6v-75.1c0-3.3 2.7-6 6-6h75.1c3.3 0 6 2.7 6 6V279zm-5.9 62.6h-75.1c-18.2 0-33 14.8-33 33v75.1c0 18.2 14.8 33 33 33H279c18.2 0 33-14.8 33-33v-75.1c-.1-18.2-14.8-33-33-33zm5.9 108.2c0 3.3-2.7 6-6 6h-75.1c-3.3 0-6-2.7-6-6v-75.1c0-3.3 2.7-6 6-6h75.1c3.3 0 6 2.7 6 6v75.1zm164.9-278.9h-75.1c-18.2 0-33 14.8-33 33V279c0 18.2 14.8 33 33 33h75.1c18.2 0 33-14.8 33-33v-75.1c-.1-18.2-14.9-33-33-33zm5.9 108.1c0 3.3-2.7 6-6 6h-75.1c-3.3 0-6-2.7-6-6v-75.1c0-3.3 2.7-6 6-6h75.1c3.3 0 6 2.7 6 6V279zm-5.9 62.6h-75.1c-18.2 0-33 14.8-33 33v75.1c0 18.2 14.8 33 33 33h75.1c18.2 0 33-14.8 33-33v-75.1c-.1-18.2-14.9-33-33-33zm5.9 108.2c0 3.3-2.7 6-6 6h-75.1c-3.3 0-6-2.7-6-6v-75.1c0-3.3 2.7-6 6-6h75.1c3.3 0 6 2.7 6 6v75.1zM449.8.1h-75.1c-18.2 0-33 14.8-33 33v75.1c0 18.2 14.8 33 33 33h75.1c18.2 0 33-14.8 33-33V33c-.1-18.1-14.9-32.9-33-32.9zm5.9 108.1c0 3.3-2.7 6-6 6h-75.1c-3.3 0-6-2.7-6-6V33c0-3.3 2.7-6 6-6h75.1c3.3 0 6 2.7 6 6v75.2zM279 .1h-75.1c-18.2 0-33 14.8-33 33v75.1c0 18.2 14.8 33 33 33H279c18.2 0 33-14.8 33-33V33C311.9 14.9 297.2.1 279 .1zm5.9 108.1c0 3.3-2.7 6-6 6h-75.1c-3.3 0-6-2.7-6-6V33c0-3.3 2.7-6 6-6h75.1c3.3 0 6 2.7 6 6v75.2z" fill="#fff"/></svg>