<svg xmlns="http://www.w3.org/2000/svg" viewBox="0 0 297 297"><path d="M277.075 38.277H19.925C8.938 38.277 0 47.215 0 58.202v23.755c0 10.987 8.938 19.926 19.925 19.926h257.15c10.987 0 19.925-8.939 19.925-19.926V58.202c0-10.987-8.938-19.925-19.925-19.925zM20.224 81.659V58.501h256.551v23.158H20.224zm256.851 35.038H19.925C8.938 116.697 0 125.635 0 136.622v23.756c0 10.987 8.938 19.925 19.925 19.925h257.15c10.987 0 19.925-8.938 19.925-19.925v-23.756c0-10.987-8.938-19.925-19.925-19.925zM20.224 160.079v-23.157h256.551v23.157H20.224zm256.851 35.038H19.925C8.938 195.117 0 204.056 0 215.043v23.755c0 10.987 8.938 19.925 19.925 19.925h257.15c10.987 0 19.925-8.938 19.925-19.925v-23.755c0-10.987-8.938-19.926-19.925-19.926zM20.224 238.499v-23.157h256.551v23.157H20.224z"/></svg>